<svg width="1000" height="1000" viewBox="0 0 1000 1000" fill="none" xmlns="http://www.w3.org/2000/svg">
<path d="M616.59 325.791L376.517 161.639C343.692 139.195 298.887 147.61 276.443 180.435L49.6405 512.134C27.1962 544.959 35.6114 589.764 68.4362 612.208L308.51 776.36C341.335 798.805 386.139 790.39 408.584 757.565L635.386 425.865C657.83 393.04 649.415 348.236 616.59 325.791Z" fill="#01FFFF"/>
<path d="M928.595 322.584L693.212 161.639C660.387 139.195 615.582 147.61 593.138 180.435L321.582 577.587C299.138 610.412 307.553 655.216 340.378 677.66L575.761 838.606C608.586 861.05 653.39 852.635 675.835 819.81L947.391 422.658C969.835 389.833 961.42 345.029 928.595 322.584Z" fill="#6B00FE"/>
<mask id="mask0_3_10" style="mask-type:alpha" maskUnits="userSpaceOnUse" x="37" y="149" width="611" height="640">
<path d="M616.59 325.791L376.517 161.639C343.692 139.195 298.887 147.61 276.443 180.435L49.6406 512.134C27.1963 544.959 35.6114 589.764 68.4363 612.208L308.51 776.36C341.335 798.805 386.139 790.39 408.584 757.565L635.386 425.865C657.83 393.04 649.415 348.236 616.59 325.791Z" fill="#01FFFF"/>
</mask>
<g mask="url(#mask0_3_10)">
<path d="M928.595 322.584L693.212 161.639C660.387 139.195 615.582 147.61 593.138 180.435L321.582 577.587C299.138 610.412 307.553 655.216 340.378 677.66L575.761 838.606C608.586 861.05 653.39 852.635 675.835 819.81L947.391 422.658C969.835 389.833 961.42 345.029 928.595 322.584Z" fill="#020099"/>
</g>
</svg>
