<svg width="2816" height="759" viewBox="0 0 2816 759" fill="none" xmlns="http://www.w3.org/2000/svg">
<path d="M1185.14 563L1105.36 301.182H1147.64L1204.23 501.636H1206.95L1262.86 301.182H1305.82L1361.05 500.955H1363.77L1420.36 301.182H1462.64L1382.86 563H1343.32L1286.05 361.864H1281.95L1224.68 563H1185.14ZM1592.86 569.136C1576.27 569.136 1561.22 566.011 1547.69 559.761C1534.17 553.398 1523.43 544.25 1515.48 532.318C1507.52 520.273 1503.55 505.727 1503.55 488.682C1503.55 473.682 1506.5 461.523 1512.41 452.205C1518.32 442.773 1526.22 435.386 1536.1 430.045C1545.99 424.705 1556.9 420.727 1568.83 418.114C1580.88 415.386 1592.98 413.227 1605.14 411.636C1621.05 409.591 1633.94 408.057 1643.83 407.034C1653.83 405.898 1661.1 404.023 1665.65 401.409C1670.31 398.795 1672.64 394.25 1672.64 387.773V386.409C1672.64 369.591 1668.03 356.523 1658.83 347.205C1649.74 337.886 1635.93 333.227 1617.41 333.227C1598.2 333.227 1583.15 337.432 1572.24 345.841C1561.33 354.25 1553.66 363.227 1549.23 372.773L1511.05 359.136C1517.86 343.227 1526.95 330.841 1538.32 321.977C1549.8 313 1562.3 306.75 1575.82 303.227C1589.45 299.591 1602.86 297.773 1616.05 297.773C1624.45 297.773 1634.11 298.795 1645.02 300.841C1656.05 302.773 1666.67 306.807 1676.9 312.943C1687.24 319.08 1695.82 328.341 1702.64 340.727C1709.45 353.114 1712.86 369.705 1712.86 390.5V563H1672.64V527.545H1670.59C1667.86 533.227 1663.32 539.307 1656.95 545.784C1650.59 552.261 1642.13 557.773 1631.56 562.318C1620.99 566.864 1608.09 569.136 1592.86 569.136ZM1599 533C1614.91 533 1628.32 529.875 1639.23 523.625C1650.25 517.375 1658.55 509.307 1664.11 499.42C1669.8 489.534 1672.64 479.136 1672.64 468.227V431.409C1670.93 433.455 1667.18 435.33 1661.39 437.034C1655.7 438.625 1649.11 440.045 1641.61 441.295C1634.23 442.432 1627.01 443.455 1619.97 444.364C1613.03 445.159 1607.41 445.841 1603.09 446.409C1592.64 447.773 1582.86 449.989 1573.77 453.057C1564.8 456.011 1557.52 460.5 1551.95 466.523C1546.5 472.432 1543.77 480.5 1543.77 490.727C1543.77 504.705 1548.94 515.273 1559.28 522.432C1569.74 529.477 1582.98 533 1599 533ZM1826.51 213.909V563H1786.29V213.909H1826.51ZM1940.42 213.909V563H1900.19V213.909H1940.42ZM2123.87 568.455C2098.64 568.455 2076.88 562.886 2058.59 551.75C2040.41 540.5 2026.37 524.818 2016.49 504.705C2006.71 484.477 2001.83 460.955 2001.83 434.136C2001.83 407.318 2006.71 383.682 2016.49 363.227C2026.37 342.659 2040.12 326.636 2057.74 315.159C2075.46 303.568 2096.14 297.773 2119.78 297.773C2133.42 297.773 2146.88 300.045 2160.18 304.591C2173.47 309.136 2185.58 316.523 2196.49 326.75C2207.39 336.864 2216.09 350.273 2222.57 366.977C2229.04 383.682 2232.28 404.25 2232.28 428.682V445.727H2030.46V410.955H2191.37C2191.37 396.182 2188.42 383 2182.51 371.409C2176.71 359.818 2168.42 350.67 2157.62 343.966C2146.94 337.261 2134.33 333.909 2119.78 333.909C2103.76 333.909 2089.89 337.886 2078.19 345.841C2066.6 353.682 2057.68 363.909 2051.43 376.523C2045.18 389.136 2042.05 402.659 2042.05 417.091V440.273C2042.05 460.045 2045.46 476.807 2052.28 490.557C2059.21 504.193 2068.82 514.591 2081.09 521.75C2093.36 528.795 2107.62 532.318 2123.87 532.318C2134.44 532.318 2143.99 530.841 2152.51 527.886C2161.14 524.818 2168.59 520.273 2174.84 514.25C2181.09 508.114 2185.92 500.5 2189.33 491.409L2228.19 502.318C2224.1 515.5 2217.22 527.091 2207.57 537.091C2197.91 546.977 2185.97 554.705 2171.77 560.273C2157.57 565.727 2141.6 568.455 2123.87 568.455ZM2407.34 301.182V335.273H2271.66V301.182H2407.34ZM2311.2 238.455H2351.43V488C2351.43 499.364 2353.08 507.886 2356.37 513.568C2359.78 519.136 2364.1 522.886 2369.33 524.818C2374.67 526.636 2380.29 527.545 2386.2 527.545C2390.63 527.545 2394.27 527.318 2397.11 526.864C2399.95 526.295 2402.22 525.841 2403.93 525.5L2412.11 561.636C2409.38 562.659 2405.58 563.682 2400.69 564.705C2395.8 565.841 2389.61 566.409 2382.11 566.409C2370.75 566.409 2359.61 563.966 2348.7 559.08C2337.91 554.193 2328.93 546.75 2321.77 536.75C2314.72 526.75 2311.2 514.136 2311.2 498.909V238.455ZM2467.85 563V301.182H2508.08V563H2467.85ZM2488.3 257.545C2480.46 257.545 2473.7 254.875 2468.02 249.534C2462.45 244.193 2459.67 237.773 2459.67 230.273C2459.67 222.773 2462.45 216.352 2468.02 211.011C2473.7 205.67 2480.46 203 2488.3 203C2496.14 203 2502.85 205.67 2508.42 211.011C2514.1 216.352 2516.94 222.773 2516.94 230.273C2516.94 237.773 2514.1 244.193 2508.42 249.534C2502.85 254.875 2496.14 257.545 2488.3 257.545ZM2658.8 569.136C2642.21 569.136 2627.15 566.011 2613.63 559.761C2600.11 553.398 2589.37 544.25 2581.41 532.318C2573.46 520.273 2569.48 505.727 2569.48 488.682C2569.48 473.682 2572.44 461.523 2578.35 452.205C2584.26 442.773 2592.15 435.386 2602.04 430.045C2611.93 424.705 2622.84 420.727 2634.77 418.114C2646.81 415.386 2658.91 413.227 2671.07 411.636C2686.98 409.591 2699.88 408.057 2709.77 407.034C2719.77 405.898 2727.04 404.023 2731.59 401.409C2736.24 398.795 2738.57 394.25 2738.57 387.773V386.409C2738.57 369.591 2733.97 356.523 2724.77 347.205C2715.68 337.886 2701.87 333.227 2683.35 333.227C2664.14 333.227 2649.09 337.432 2638.18 345.841C2627.27 354.25 2619.6 363.227 2615.16 372.773L2576.98 359.136C2583.8 343.227 2592.89 330.841 2604.26 321.977C2615.73 313 2628.23 306.75 2641.76 303.227C2655.39 299.591 2668.8 297.773 2681.98 297.773C2690.39 297.773 2700.05 298.795 2710.96 300.841C2721.98 302.773 2732.61 306.807 2742.84 312.943C2753.18 319.08 2761.76 328.341 2768.57 340.727C2775.39 353.114 2778.8 369.705 2778.8 390.5V563H2738.57V527.545H2736.53C2733.8 533.227 2729.26 539.307 2722.89 545.784C2716.53 552.261 2708.06 557.773 2697.49 562.318C2686.93 566.864 2674.03 569.136 2658.8 569.136ZM2664.94 533C2680.85 533 2694.26 529.875 2705.16 523.625C2716.19 517.375 2724.48 509.307 2730.05 499.42C2735.73 489.534 2738.57 479.136 2738.57 468.227V431.409C2736.87 433.455 2733.12 435.33 2727.32 437.034C2721.64 438.625 2715.05 440.045 2707.55 441.295C2700.16 442.432 2692.95 443.455 2685.9 444.364C2678.97 445.159 2673.35 445.841 2669.03 446.409C2658.57 447.773 2648.8 449.989 2639.71 453.057C2630.73 456.011 2623.46 460.5 2617.89 466.523C2612.44 472.432 2609.71 480.5 2609.71 490.727C2609.71 504.705 2614.88 515.273 2625.22 522.432C2635.68 529.477 2648.91 533 2664.94 533Z" fill="white"/>
<path d="M607.59 204.791L367.517 40.6389C334.692 18.1947 289.887 26.6098 267.443 59.4346L40.6405 391.134C18.1962 423.959 26.6114 468.764 59.4362 491.208L299.51 655.36C332.335 677.805 377.139 669.39 399.584 636.565L626.386 304.865C648.83 272.04 640.415 227.236 607.59 204.791Z" fill="#01FFFF"/>
<path d="M919.595 201.584L684.212 40.6389C651.387 18.1947 606.582 26.6098 584.138 59.4346L312.582 456.587C290.138 489.412 298.553 534.216 331.378 556.66L566.761 717.606C599.586 740.05 644.39 731.635 666.835 698.81L938.391 301.658C960.835 268.833 952.42 224.029 919.595 201.584Z" fill="#6B00FE"/>
<mask id="mask0_3_10" style="mask-type:alpha" maskUnits="userSpaceOnUse" x="28" y="28" width="611" height="640">
<path d="M607.59 204.791L367.517 40.6389C334.692 18.1947 289.887 26.6098 267.443 59.4346L40.6406 391.134C18.1963 423.959 26.6114 468.764 59.4363 491.208L299.51 655.36C332.335 677.805 377.139 669.39 399.584 636.565L626.386 304.865C648.83 272.04 640.415 227.236 607.59 204.791Z" fill="#01FFFF"/>
</mask>
<g mask="url(#mask0_3_10)">
<path d="M919.595 201.584L684.212 40.6389C651.387 18.1947 606.582 26.6098 584.138 59.4346L312.582 456.587C290.138 489.412 298.553 534.216 331.378 556.66L566.761 717.606C599.586 740.05 644.39 731.635 666.835 698.81L938.391 301.658C960.835 268.833 952.42 224.029 919.595 201.584Z" fill="#020099"/>
</g>
</svg>
